# xmcd CD database file
#
# Track frame offsets:
#	150
#	26627
#	47138
#	73524
#	96736
#	121360
#	151333
#	177058
#	234990
#	293216
#
# Disc length: 4274 seconds
#
# Revision: 0
# Processed by: cddbd v1.5.2PL0 Copyright (c) Steve Scherf et al.
# Submitted via: CDex 1.70beta2
#
DISCID=8810b00a
DTITLE=Art Blakey and The Jazz Messengers - For Minors Only - Live in Paris and New York
DYEAR=1971
DGENRE=Jazz
TTITLE0=For Minors Only
TTITLE1=Right Down Front
TTITLE2=Deo-X
TTITLE3=Sweet Sakeena
TTITLE4=For Miles and Miles
TTITLE5=Krafty
TTITLE6=Late Spring
TTITLE7=New World
TTITLE8=Slide No. 2
TTITLE9=Theme
EXTD=YEAR: 1971
EXTT0=
EXTT1=
EXTT2=
EXTT3=
EXTT4=
EXTT5=
EXTT6=
EXTT7=
EXTT8=
EXTT9=
PLAYORDER=
